<svg xmlns="http://www.w3.org/2000/svg" id="Capa_2" viewBox="0 0 595.28 560.38"><defs><style>.cls-1{fill:#97c950}</style></defs><path d="m595.28 263.46-37.37 37.19c-5.95 5.92-11.91 11.84-18.62 17.37 1.38-4.87 2.75-9.74 4.14-14.61 2.36-8.26 4.51-16.58 5.71-25.09.52-3.7 3.2-5.65 5.48-7.97 7.25-7.37 7.38-7.45-.04-14.54-3.04-2.9-4.56-5.96-4.93-10.25-.79-9.19-2.34-18.32-3.52-27.48-.16-1.25-.65-2.57.13-3.88 1.59 0 2.19 1.38 3.06 2.25 14.24 14.17 28.44 28.38 42.67 42.57 1.02 1.02 2.18 1.9 3.28 2.85v1.59ZM0 261.88c5.61-4.65 10.43-10.1 15.6-15.2 9.31-9.18 18.52-18.47 27.79-27.7.72-.72 1.42-1.98 2.54-1.55 1.46.56.77 2.04.68 3.15-.66 8.42-1.62 16.83-1.32 25.28.13 3.71-.91 6.53-3.7 9.09-2.69 2.46-7.07 4.75-7.1 8.06-.03 3.32 4.39 5.58 7.05 8.07 3.69 3.45 5.97 7.18 6.75 12.43 1.54 10.43 4.37 20.65 7.15 30.84.33 1.22 1.03 2.45.18 4.48-4.84-4.77-9.51-9.31-14.1-13.91-12.87-12.9-25.72-25.82-38.58-38.73-.84-.84-1.68-1.7-2.93-1.93v-2.38ZM278.96 231.4c-.18.87-.2 1.26-.35 1.6-2.18 5.12-1.6 7.64 2.15 9.24 4.3 1.83 9.23-.02 11.08-4.15 3.32-7.43-3.88-16.13-12.67-15.3-6.44.61-10.43 4.23-12.48 11.49-4.36 15.45-2.53 30.58 2.3 45.59 5.36 16.65 12.44 32.57 20.57 48.03 1.54 2.93 1.43 4.34-1.74 6.11-11.66 6.54-19.75 16.55-25.98 28.16-4.19 7.8-7.87 15.85-12.48 23.43-10.05 16.53-25.26 23.73-44.01 24.64-8.36.41-16.63.06-24.59-3.11-11.3-4.49-19.05-15.27-18.09-26.73.77-9.26 5.44-16.49 14.11-20.54 5.65-2.64 14.54-.67 19.17 3.91 4.25 4.21 5.48 10.73 3.11 16.52-2.99 7.33-11.14 9.56-17.33 4.75-3.58-2.78-4.23-6.04-2.47-11.81.29-.95 1.37-2.04.47-2.92-1-.97-2.26-.04-3.32.35-5.02 1.87-7.58 7.54-5.86 13.12 2.59 8.41 9.41 11.46 17.16 12.65 24.09 3.7 43.85-7.64 54.26-31.76 8.63-19.99 11.63-41.04 9.39-62.76-.12-1.15-.44-2.28-.85-3.41-1.06 12.07-3.66 23.72-8.56 34.8-3.49 7.89-8.42 14.71-15.85 19.33-6.67 4.15-13.95 5.55-21.69 3.6-7.32-1.84-12.54-8.11-13.12-15.63-.45-5.87 4.1-10.61 11.12-11.51.7 1.41-.58 2.16-1.15 3.06-2.18 3.46-4.28 7.08-1.49 10.98 2.81 3.93 6.99 5.63 11.82 4.99 4.61-.61 7.68-3.34 9.12-7.77 1.42-4.39.69-8.59-1.32-12.67-4.4-8.9-9.98-17.11-14.91-25.71-11.06-19.3-19.57-39.51-22.4-61.8-3.24-25.44.5-49.23 16.3-70.26 6.38-8.49 14.31-15.11 23.65-20.1 8.97-4.79 18.43-3.64 27.91-2.36 1.51.21 2.96 1.23 5.1.27-4.64-5.49-9.99-9.2-17.11-9.49-5.53-.22-11.1-.37-16.63.52-2.04.33-4 .4-2.55-2.76 4.23-9.22 5.35-18.99 5.07-29.01-.04-1.25-.59-2.92.8-3.63 1.35-.69 2.36.78 3.49 1.37 10.44 5.49 19.23 12.9 26.12 23.41 1.53-6.88 1.23-13.03 1.38-19.16.06-2.47-.62-6.07 1.47-6.97 2.39-1.04 3.85 2.5 5.62 4.1 4.02 3.63 7.88 7.44 11.73 11.25.87.87 2.71 1.4 2.2 2.93-.38 1.16-2.02 1-3.16 1.26-2.74.61-5.29 1.65-7.62 3.22-1.46.98-2.65 2.21-3.33 3.84-.51 1.22-1.2 2.78-.43 3.78 1 1.29 2.39-.07 3.57-.43 15.6-4.76 31.49-6.51 47.75-4.68 15.09 1.69 29.38 6.01 41.86 14.7 20.87 14.52 34.47 34.17 36.54 59.85 1.28 15.91-7.29 27.92-20.41 36.62-.65.43-1.38 1.01-2.18.59-1.12-.58-.48-1.61-.44-2.48.34-9.48 1.48-19.04-2.15-28.21-1.35-3.41-2.83-6.76-6.1-10.23-1.97 25.15-6.8 48.32-28 64.5 4.98 1.17 9.16.06 12.34-3.28 2.94-3.09 3.99-2.06 5.8 1.1 11.56 20.26 27.36 36.12 48.8 45.98 1.05.48 2.64.68 2.81 1.94.21 1.58-1.49 2.05-2.58 2.65-4.22 2.33-8.8 3.48-13.54 4.24-16.34 2.6-31.52-.53-45.8-8.74-8.04-4.62-15.81-9.6-22.97-15.52-.6-.49-1.3-.86-2.53-1.66 1.07 5.25 3.61 9.16 5.99 13.08 12.04 19.92 27.12 36.95 46.71 49.95 9.5 6.3 17.95 14.01 23.48 24.3 5.01 9.31 6.77 19.2 4.09 29.51-3.99 15.36-18.39 22.98-33.36 17.92-9.05-3.06-14.6-12.62-12.93-22.29 1.32-.32 1.46.86 1.89 1.57 2.03 3.35 4.62 6.14 8.18 7.85 11.07 5.31 20.32-.98 22.03-14.2 2.05-15.81-6.24-25.74-18.05-33.95-11.13-7.73-23.3-13.62-35.63-19.03-21.65-9.5-35.45-26.1-44.51-47.24-1.82-4.24-3.08-8.71-4.67-13.05-.95-2.6-.14-3.84 2.58-4.45 8.29-1.84 16.4-4.29 23.6-8.97 6.43-4.18 11.96-9.17 14.09-16.98 1.6-5.87-.48-12.36-5.27-15.94-3.97-2.97-8.6-2.99-12.48-.05-4.03 3.04-5.23 7.35-3.51 11.94 1.64 4.37 5.08 4.86 9.05 4.55.93-.07 2.33-.96 2.8.41.44 1.27-.76 2.13-1.72 2.83-5.97 4.35-14.21 1.45-15.45-5.74-.6-3.46-1.76-3.76-4.82-2.88-6.44 1.87-10.39.63-13.08-3.47-3.39-5.17-1.55-10.43 5.13-13.61Z" class="cls-1"/><path d="M437.15 69.43c11.15 7.74 20.71 16.4 29.67 25.73 14.48 15.07 26.43 31.93 35.35 50.87 8.01 17 12.92 34.83 14.67 53.58.85 9.11.62 18.21.62 27.32 0 2.95.83 5.34 2.63 7.64 6.52 8.32 12.88 16.77 19.42 25.07 1.71 2.17 1.76 3.7-.28 5.74-7.48 7.47-14.76 15.14-22.22 22.64-1.57 1.58-2.42 3.16-2.71 5.44-3.63 27.88-6.61 55.84-9.16 83.83-2.09 23-4.35 46.05-3.35 69.19.64 14.66 5.13 28.08 15.92 38.65 17.52 17.17 41.14 6.32 46.74-13.06 2.06-7.15-.26-13.94-5.7-19.22-4.22-4.1-12.38-3.93-16.78-.07-3.41 2.99-1.81 6.85-2.05 10.42-.11 1.6 1.68 3.81-.28 4.64-1.84.78-3.7-.99-5.17-2.29-4.25-3.77-4.9-11.49-1.5-16.79 5.66-8.83 19.96-11.8 29.43-6.11 11.54 6.92 17.38 22.3 13.51 36.46-8.77 32.09-48.86 46.98-77 24.85-12.81-10.07-18.35-24.2-21.19-39.63-3.05-16.57-1.74-33.15.32-49.71 5.19-41.69 12.69-83.02 20.78-124.22 1.64-8.36-1.06-13.19-6.45-18.21-8.7-8.12-18.8-11.41-30.58-9.69-4.24.62-4.87.11-4.67-4.83 1.14-28.16-5.98-54.68-15.73-80.72-2.39-6.39-5.99-11.45-12.74-13.67-1.86-.61-2.67-1.7-1.77-3.57 4.7-9.9 1.51-19.16-2.5-28.21-8.64-19.5-18.94-38.13-31.16-55.58-12.17-17.38-27.11-32.39-42.81-46.61-5.09-4.61-10.34-9.05-15.47-13.62-1.29-1.15-2.42-1.89-4.16-.7-10.27 7.04-19.25 15.25-24.96 26.56-.74 1.47-1 2.98-1.02 4.59-.04 4.49 2.02 6.52 6.54 6.44 2.16-.04 4.19-.67 6.09-1.61 5.81-2.87 12.15-3.5 18.41-4.47.53-.08 1.05-.04 1.48.9-2.27 1.56-4.52 3.29-6.95 4.74-12.41 7.43-21.55 18.16-29.88 29.67-1.65 2.29-2.9 3.79-5.18.59-9.85-13.8-21.37-25.85-36.42-34.12-.45-.25-.9-.56-.76-1.51 5.5-.13 10.84.88 16.03 2.74 2.61.93 5.14 2.2 7.82 2.8 6.46 1.45 9.98-2.47 8.08-8.9-1.33-4.52-4.06-8.33-7-11.89-5.15-6.25-11.34-11.41-17.91-16.13-1.69-1.21-2.95-1.14-4.54.19-29.17 24.39-55.76 50.95-73.85 85.01-6.01 11.32-12.41 22.41-17.29 34.28-3.36 8.18-5.04 16.43-1.12 24.93.92 1.99 0 2.92-1.8 3.51-6.6 2.17-10.16 7.13-12.55 13.35-7.66 19.95-13.17 40.45-15.52 61.69-.73 6.66-.34 13.46-.25 20.2.04 3.28-.97 4.48-4.44 3.97-16.19-2.39-28.13 4.66-37.49 17.22-1.34 1.8-1.06 3.75-.67 5.7 4.9 24.88 9.38 49.84 13.54 74.85 3.92 23.57 8 47.15 9.73 71 1.41 19.39.25 38.58-9.12 56.38-11.07 21.04-34.51 31.79-56.96 24.84-18.68-5.79-31.37-18.22-34.23-38.2-1.94-13.58 4.45-28.3 17.63-33.16 8.57-3.16 16.51-1.41 23.33 4.43 6.74 5.78 6.53 16.91-.12 21.01-1.19.73-2.55 1.95-3.97.97-1.11-.77-.33-2.21-.24-3.36.06-.79.14-1.58.18-2.37.34-7.02-.68-9.1-5.33-10.95-5.65-2.25-11.24-1.23-14.8 3.26-5.11 6.46-6.78 13.7-3.24 21.5 9.79 21.61 35.43 24.15 49.68 4.99 7.67-10.32 11.43-22.01 11.8-34.72.69-23.8-1.44-47.49-3.75-71.14-2.03-20.75-4.29-41.48-6.51-62.22-.72-6.69-1.67-13.36-2.41-20.05-.24-2.18-1.56-3.57-2.96-4.98-7.26-7.32-14.48-14.67-21.79-21.93-1.93-1.92-2.24-3.53-.46-5.78 6.37-8.1 12.52-16.37 18.94-24.43 2.17-2.73 3.33-5.47 3.23-9.02-.48-16.68.36-33.26 4.39-49.56 6.49-26.27 19.08-49.35 36.18-70.19 9.69-11.81 20.61-22.29 32.47-31.84 1.44-1.16 2.99-2.17 4.52-3.2.26-.18.7-.1 1.87-.22-3.2 3.73-5.98 6.96-8.76 10.19-14.17 16.54-26.34 34.45-35.85 54.03-11.19 23.04-18.72 47.08-18.28 73.12.15 9.1-.39 18.22-.56 27.32-.05 2.74 5.56 10.65 8.01 11.6 1.06.41 1.81-.14 2.56-.63 4.25-2.82 8.85-4.8 13.91-5.48 3.32-.45 3.4-2.94 3.66-5.24 1.6-14.47 4.56-28.69 8.12-42.78 8.79-34.82 21.74-67.97 41.58-98.05 16.8-25.47 36.71-48.37 59.8-68.45 10.59-9.21 21.59-17.82 33.3-25.55 2.99-1.97 4.91-1.79 7.51.69 8.95 8.52 17.24 17.53 23.39 28.32 1.47 2.57 2.52 2.84 4.12 0 6.06-10.84 14.32-19.88 23.34-28.33 2.55-2.38 4.32-2.79 7.45-.72 27.57 18.24 51.34 40.57 72.29 66.02 15.85 19.26 29.45 39.94 39.99 62.6 11.48 24.67 19.85 50.34 25.52 76.92 2.09 9.82 4.07 19.66 4.98 29.67.28 3.04 1.53 4.8 4.77 5.16 4.42.49 8.42 2.3 12.04 4.82 2.07 1.44 3.24 1.22 5.33-.55 5.19-4.39 6.58-9.65 6.06-16.14-.99-12.23-.16-24.55-1.39-36.79-1.99-19.71-8.19-38.17-16.76-55.88-11.53-23.84-26.47-45.36-44.66-64.62-.62-.65-1.45-1.19-1.57-3.11ZM82.74 245.28c-.03.07-.14.63-.44 1.07-3.58 5.23-7.82 9.91-11.9 14.74-.81.96-.94 1.84.13 2.7 4.98 4.03 8.61 9.21 12.3 14.35.86 1.2 1.87 1.7 2.64 0 2.57-5.71 6.6-10.45 10.21-15.46 1.32-1.82.79-3.15-.8-4.36-4.05-3.07-7.17-6.95-9.8-11.25-.4-.65-.64-1.47-2.33-1.79Zm429.06-.17c-.5.55-.94.87-1.16 1.3-2.59 5.04-6.58 8.89-10.78 12.56-1.86 1.62-.73 3.05.29 4.48 3.3 4.61 7.15 8.86 9.38 14.18.84 1.99 1.79 1.97 3.07.3 3.76-4.93 7.11-10.21 12.09-14.09 1.3-1.01.86-1.98-.02-3.02-3.92-4.64-8.03-9.13-11.49-14.14-.35-.51-.83-.94-1.38-1.56Z" class="cls-1"/><path d="M228.89 460.24c-1.83 5.23-2.01 10.27-.12 15.26 1.03 2.71.15 4.36-2.04 6.03-16.73 12.74-35.9 16.68-56.42 15.87-.33-.01-.64-.32-.93-.48.02-1.4 1.2-1.4 1.94-1.75 21.77-10.19 38.43-26.35 52.73-45.2 2.15-2.83 3.55-3.4 7.25-1.93 16.12 6.39 32.67 7.24 49.12 1.08 7.01-2.62 12.51-7.33 15.83-14.25.77-1.62 1.36-2.76 2.68-.26 6.73 12.75 18.34 17.35 31.78 18.16 12.21.74 24.36.17 35.59-5.65 2.27-1.17 3.1.61 4.11 1.91 4.53 5.86 9.47 11.35 14.37 16.9 10.75 12.18 23.73 21.31 38.08 28.68 1.09.56 2.61.63 3.23 2.48-4.11.85-8.16.52-12.14.29-16.02-.94-30.92-5.25-44.07-14.87-3.01-2.2-4.63-4.15-3.02-8.12 1.84-4.54 1.31-9.29-.35-13.87-1.56-.14-1.78 1.14-2.31 1.92-6.72 9.85-15.26 17.38-26.55 21.74-9.04 3.49-17.19 8.7-25.34 13.88-9.96 6.34-12.6 16.05-12.87 26.96-.04 1.78.97 2.93 2.12 4.07 3.94 3.91 7.78 7.92 11.8 11.75 1.9 1.81 1.78 3.15-.04 4.9-4.56 4.41-9.04 8.91-13.47 13.44-1.53 1.57-2.76 1.61-4.31.03-4.53-4.63-9.09-9.23-13.74-13.73-1.79-1.74-1.48-3 .17-4.59 3.99-3.86 7.82-7.88 11.81-11.74 1.54-1.49 2.23-3.12 2.14-5.27-.48-11.83-4.53-21.4-15.47-27.58-8.17-4.62-16.13-9.64-24.87-13.1-10.12-4.01-17.48-11.17-23.71-19.75-.7-.96-1.4-1.91-2.12-2.85-.07-.09-.23-.1-.83-.35Z" class="cls-1"/><path d="M336.93 437.35c-10.83.25-18.7-4.2-26.55-8.58-3.45-1.93-6.76-4.15-9.99-6.44-1.91-1.35-3.24-1.51-5.14.2-16.53 14.94-36.15 18.04-57.38 14.54-4.95-.82-5.47-2.18-2.56-6.1 9.34-12.57 17.23-25.97 23.42-40.35 8.27-19.23 21.43-34.71 36.74-48.61 1.62-1.47 2.83-1.39 4.44-.07 11.19 9.25 24.3 14.71 37.9 19.34 10.27 3.5 20.29 7.64 28.24 15.52 4.3 4.25 7.51 8.9 7.02 15.26-.46 6.05-3.93 8.46-11.23 7.95-6.14-.43-9.05-3.58-8.67-9.4.04-.66.1-1.32.25-1.96.56-2.34-.09-2.93-2.4-1.97-9.27 3.85-16.5 15.04-15.76 25.06.63 8.6 3.09 16.38 11.18 21.11 2.13 1.25 1.46 2.1-.38 2.84-3.38 1.35-6.9 1.77-9.12 1.64ZM363.56 230.56c0 5.07.02 10.13 0 15.2-.02 4.96 1.53 5.98 6.31 4.32 3.84-1.33 5.87-4.82 8.84-7.18 6.33-5.01 12.26-3.08 13.5 4.87 2.1 13.46-2.07 25.25-10.27 35.82-1.34 1.73-2.59 1.93-4.13.1-8.51-10.12-16.67-20.46-22.5-32.45-1.17-2.4-1.36-4.37.17-6.6 2.99-4.36 4.71-9.38 6.91-14.15.39.02.79.05 1.18.07Z" class="cls-1"/></svg>